<svg xmlns="http://www.w3.org/2000/svg" xmlns:xlink="http://www.w3.org/1999/xlink" width="1240" height="819.85"><rect width="1240" height="819.85" rx="5" ry="5" class="a"/><svg y="0%" x="0%"><circle cx="20" cy="20" r="6" fill="#ff5f58"/><circle cx="40" cy="20" r="6" fill="#ffbd2e"/><circle cx="60" cy="20" r="6" fill="#18c132"/></svg><svg height="759.85" viewBox="0 0 120 75.985" width="1200" x="15" xmlns="http://www.w3.org/2000/svg" xmlns:xlink="http://www.w3.org/1999/xlink" y="50"><style>@keyframes l{0%{transform:translateX(0)}.3%{transform:translateX(-120px)}16.6%{transform:translateX(-360px)}24%{transform:translateX(-480px)}24.8%{transform:translateX(-600px)}29%{transform:translateX(-720px)}31.8%{transform:translateX(-840px)}60.5%{transform:translateX(-960px)}62.8%{transform:translateX(-1080px)}63.8%{transform:translateX(-1200px)}65.7%{transform:translateX(-1320px)}67.1%{transform:translateX(-1440px)}68.3%{transform:translateX(-1560px)}69.6%{transform:translateX(-1680px)}72.9%{transform:translateX(-2040px)}73%{transform:translateX(-2160px)}91.1%{transform:translateX(-2400px)}to{transform:translateX(-2640px)}}.a{fill:#282d35}.f{fill:#b9c0cb}.g{fill:#a8cc8c}.h{fill:#e88388}.i{fill:#66c2cd}</style><g font-size="1.67" font-family="Monaco,Consolas,Menlo,'Bitstream Vera Sans Mono','Powerline Symbols',monospace"><defs><symbol id="1"><text y="1.67" class="f">[</text><text x="1.002" y="1.67" class="g">#1#</text><text x="4.008" y="1.67" class="h">root@</text><text x="9.018" y="1.67" class="i">ubuntu-1604</text><text x="21.042" y="1.67" class="i">/go/src/github.com/moooofly/harbor-go-client]$</text></symbol><symbol id="2"><text y="1.67" class="f">[</text><text x="1.002" y="1.67" class="g">#1#</text><text x="4.008" y="1.67" class="h">root@</text><text x="9.018" y="1.67" class="i">ubuntu-1604</text><text x="21.042" y="1.67" class="i">/go/src/github.com/moooofly/harbor-go-client]$</text><text x="67.134" y="1.67" class="f">./harbor-go-client</text><text x="86.172" y="1.67" class="f">version</text></symbol><symbol id="3"><text x="1.002" y="1.67" class="f">__</text><text x="4.008" y="1.67" class="f">__</text><text x="9.018" y="1.67" class="f">____</text><text x="15.03" y="1.67" class="f">____</text><text x="22.044" y="1.67" class="f">____</text><text x="30.06" y="1.67" class="f">___</text><text x="36.072" y="1.67" class="f">____</text><text x="50.1" y="1.67" class="f">____</text><text x="57.114" y="1.67" class="f">___</text><text x="72.144" y="1.67" class="f">__</text><text x="76.152" y="1.67" class="f">_</text><text x="83.166" y="1.67" class="f">____</text><text x="91.182" y="1.67" class="f">___</text><text x="96.192" y="1.67" class="f">____</text><text x="103.206" y="1.67" class="f">______</text></symbol><symbol id="4"><text x="1.002" y="1.67" class="f">|</text><text x="4.008" y="1.67" class="f">|</text><text x="7.014" y="1.67" class="f">|</text><text x="9.018" y="1.67" class="f">/</text><text x="14.028" y="1.67" class="f">||</text><text x="20.04" y="1.67" class="f">\</text><text x="22.044" y="1.67" class="f">|</text><text x="27.054" y="1.67" class="f">\</text><text x="30.06" y="1.67" class="f">/</text><text x="34.068" y="1.67" class="f">\</text><text x="36.072" y="1.67" class="f">|</text><text x="41.082" y="1.67" class="f">\</text><text x="50.1" y="1.67" class="f">/</text><text x="55.11" y="1.67" class="f">|</text><text x="57.114" y="1.67" class="f">/</text><text x="61.122" y="1.67" class="f">\</text><text x="72.144" y="1.67" class="f">/</text><text x="75.15" y="1.67" class="f">]|</text><text x="78.156" y="1.67" class="f">|</text><text x="83.166" y="1.67" class="f">|</text><text x="88.176" y="1.67" class="f">|</text><text x="91.182" y="1.67" class="f">/</text><text x="94.188" y="1.67" class="f">_]|</text><text x="101.202" y="1.67" class="f">\</text><text x="103.206" y="1.67" class="f">|</text><text x="110.22" y="1.67" class="f">|</text></symbol><symbol id="5"><text x="1.002" y="1.67" class="f">|</text><text x="4.008" y="1.67" class="f">|</text><text x="7.014" y="1.67" class="f">||</text><text x="11.022" y="1.67" class="f">o</text><text x="14.028" y="1.67" class="f">||</text><text x="18.036" y="1.67" class="f">D</text><text x="21.042" y="1.67" class="f">)|</text><text x="25.05" y="1.67" class="f">o</text><text x="28.056" y="1.67" class="f">)|</text><text x="35.07" y="1.67" class="f">||</text><text x="39.078" y="1.67" class="f">D</text><text x="42.084" y="1.67" class="f">)_____</text><text x="49.098" y="1.67" class="f">|</text><text x="53.106" y="1.67" class="f">__||</text><text x="62.124" y="1.67" class="f">|</text><text x="64.128" y="1.67" class="f">_____</text><text x="71.142" y="1.67" class="f">/</text><text x="74.148" y="1.67" class="f">/</text><text x="76.152" y="1.67" class="f">|</text><text x="78.156" y="1.67" class="f">|</text><text x="84.168" y="1.67" class="f">|</text><text x="87.174" y="1.67" class="f">|</text><text x="90.18" y="1.67" class="f">/</text><text x="93.186" y="1.67" class="f">[_</text><text x="96.192" y="1.67" class="f">|</text><text x="99.198" y="1.67" class="f">_</text><text x="102.204" y="1.67" class="f">||</text><text x="110.22" y="1.67" class="f">|</text></symbol><symbol id="6"><text x="1.002" y="1.67" class="f">|</text><text x="4.008" y="1.67" class="f">_</text><text x="7.014" y="1.67" class="f">||</text><text x="14.028" y="1.67" class="f">||</text><text x="20.04" y="1.67" class="f">/</text><text x="22.044" y="1.67" class="f">|</text><text x="28.056" y="1.67" class="f">||</text><text x="32.064" y="1.67" class="f">O</text><text x="35.07" y="1.67" class="f">||</text><text x="41.082" y="1.67" class="f">/|</text><text x="48.096" y="1.67" class="f">||</text><text x="52.104" y="1.67" class="f">|</text><text x="55.11" y="1.67" class="f">||</text><text x="59.118" y="1.67" class="f">O</text><text x="62.124" y="1.67" class="f">||</text><text x="69.138" y="1.67" class="f">|/</text><text x="73.146" y="1.67" class="f">/</text><text x="76.152" y="1.67" class="f">|</text><text x="78.156" y="1.67" class="f">|___</text><text x="84.168" y="1.67" class="f">|</text><text x="87.174" y="1.67" class="f">|</text><text x="89.178" y="1.67" class="f">|</text><text x="94.188" y="1.67" class="f">_]|</text><text x="99.198" y="1.67" class="f">|</text><text x="102.204" y="1.67" class="f">||_|</text><text x="108.216" y="1.67" class="f">|_|</text></symbol><symbol id="7"><text x="1.002" y="1.67" class="f">|</text><text x="4.008" y="1.67" class="f">|</text><text x="7.014" y="1.67" class="f">||</text><text x="11.022" y="1.67" class="f">_</text><text x="14.028" y="1.67" class="f">||</text><text x="20.04" y="1.67" class="f">\</text><text x="22.044" y="1.67" class="f">|</text><text x="25.05" y="1.67" class="f">O</text><text x="28.056" y="1.67" class="f">||</text><text x="35.07" y="1.67" class="f">||</text><text x="41.082" y="1.67" class="f">\|_____||</text><text x="52.104" y="1.67" class="f">|_</text><text x="55.11" y="1.67" class="f">||</text><text x="62.124" y="1.67" class="f">||_____/</text><text x="73.146" y="1.67" class="f">\_</text><text x="76.152" y="1.67" class="f">|</text><text x="82.164" y="1.67" class="f">|</text><text x="84.168" y="1.67" class="f">|</text><text x="87.174" y="1.67" class="f">|</text><text x="89.178" y="1.67" class="f">|</text><text x="93.186" y="1.67" class="f">[_</text><text x="96.192" y="1.67" class="f">|</text><text x="99.198" y="1.67" class="f">|</text><text x="102.204" y="1.67" class="f">|</text><text x="105.21" y="1.67" class="f">|</text><text x="108.216" y="1.67" class="f">|</text></symbol><symbol id="8"><text x="1.002" y="1.67" class="f">|</text><text x="4.008" y="1.67" class="f">|</text><text x="7.014" y="1.67" class="f">||</text><text x="11.022" y="1.67" class="f">|</text><text x="14.028" y="1.67" class="f">||</text><text x="18.036" y="1.67" class="f">.</text><text x="21.042" y="1.67" class="f">\|</text><text x="28.056" y="1.67" class="f">||</text><text x="35.07" y="1.67" class="f">||</text><text x="39.078" y="1.67" class="f">.</text><text x="42.084" y="1.67" class="f">\</text><text x="49.098" y="1.67" class="f">|</text><text x="55.11" y="1.67" class="f">||</text><text x="62.124" y="1.67" class="f">|</text><text x="69.138" y="1.67" class="f">\</text><text x="75.15" y="1.67" class="f">||</text><text x="82.164" y="1.67" class="f">|</text><text x="84.168" y="1.67" class="f">|</text><text x="87.174" y="1.67" class="f">|</text><text x="89.178" y="1.67" class="f">|</text><text x="95.19" y="1.67" class="f">||</text><text x="99.198" y="1.67" class="f">|</text><text x="102.204" y="1.67" class="f">|</text><text x="105.21" y="1.67" class="f">|</text><text x="108.216" y="1.67" class="f">|</text></symbol><symbol id="9"><text x="1.002" y="1.67" class="f">|__|__||__|__||__|\_||_____|</text><text x="30.06" y="1.67" class="f">\___/</text><text x="36.072" y="1.67" class="f">|__|\_|</text><text x="49.098" y="1.67" class="f">|___,_|</text><text x="57.114" y="1.67" class="f">\___/</text><text x="70.14" y="1.67" class="f">\____||_____||____||_____||__|__|</text><text x="105.21" y="1.67" class="f">|__|</text></symbol><symbol id="10"><text y="1.67" class="f">+----------------------+------------------------------------------+</text></symbol><symbol id="11"><text y="1.67" class="f">|</text><text x="2.004" y="1.67" class="f">Client</text><text x="9.018" y="1.67" class="f">Version</text><text x="23.046" y="1.67" class="f">|</text><text x="25.05" y="1.67" class="f">v0.9.0</text><text x="66.132" y="1.67" class="f">|</text></symbol><symbol id="12"><text y="1.67" class="f">|</text><text x="2.004" y="1.67" class="f">Go</text><text x="5.01" y="1.67" class="f">Version</text><text x="23.046" y="1.67" class="f">|</text><text x="25.05" y="1.67" class="f">go</text><text x="28.056" y="1.67" class="f">version</text><text x="36.072" y="1.67" class="f">go1.10.3</text><text x="45.09" y="1.67" class="f">linux/amd64</text><text x="66.132" y="1.67" class="f">|</text></symbol><symbol id="13"><text y="1.67" class="f">|</text><text x="2.004" y="1.67" class="f">UTC</text><text x="6.012" y="1.67" class="f">Build</text><text x="12.024" y="1.67" class="f">Time</text><text x="23.046" y="1.67" class="f">|</text><text x="25.05" y="1.67" class="f">2018-08-05</text><text x="36.072" y="1.67" class="f">02:16:30</text><text x="66.132" y="1.67" class="f">|</text></symbol><symbol id="14"><text y="1.67" class="f">|</text><text x="2.004" y="1.67" class="f">Git</text><text x="6.012" y="1.67" class="f">Branch</text><text x="23.046" y="1.67" class="f">|</text><text x="25.05" y="1.67" class="f">develop</text><text x="66.132" y="1.67" class="f">|</text></symbol><symbol id="15"><text y="1.67" class="f">|</text><text x="2.004" y="1.67" class="f">Git</text><text x="6.012" y="1.67" class="f">Tag</text><text x="23.046" y="1.67" class="f">|</text><text x="25.05" y="1.67" class="f">v0.9.0-2-g0f0c6f4</text><text x="66.132" y="1.67" class="f">|</text></symbol><symbol id="16"><text y="1.67" class="f">|</text><text x="2.004" y="1.67" class="f">Git</text><text x="6.012" y="1.67" class="f">Hash</text><text x="23.046" y="1.67" class="f">|</text><text x="25.05" y="1.67" class="f">0f0c6f4bbc4c4e926816b59065dacedd0c957966</text><text x="66.132" y="1.67" class="f">|</text></symbol><symbol id="17"><text y="1.67" class="f">[</text><text x="1.002" y="1.67" class="g">#2#</text><text x="4.008" y="1.67" class="h">root@</text><text x="9.018" y="1.67" class="i">ubuntu-1604</text><text x="21.042" y="1.67" class="i">/go/src/github.com/moooofly/harbor-go-client]$</text></symbol><symbol id="18"><text y="1.67" class="f">[</text><text x="1.002" y="1.67" class="g">#2#</text><text x="4.008" y="1.67" class="h">root@</text><text x="9.018" y="1.67" class="i">ubuntu-1604</text><text x="21.042" y="1.67" class="i">/go/src/github.com/moooofly/harbor-go-client]$</text><text x="67.134" y="1.67" class="f">exit</text></symbol><symbol id="a"><path fill="transparent" d="M0 0h120v36H0z"/></symbol><symbol id="b"><path fill="#6f7683" d="M0 0h1.102v2.171H0z"/></symbol></defs><path class="a" d="M0 0h120v75.985H0z"/><g style="animation-duration:8.110167s;animation-iteration-count:infinite;animation-name:l;animation-timing-function:steps(1,end)"><svg width="2760"><svg><use xlink:href="#a"/><use xlink:href="#b" x="-.004"/></svg><svg x="120"><use xlink:href="#a"/><use xlink:href="#b" x="66.996"/><use xlink:href="#1"/></svg><svg x="240"><use xlink:href="#a"/><use xlink:href="#b" x="-.004" y="2.146"/><use xlink:href="#1"/></svg><svg x="360"><use xlink:href="#a"/><use xlink:href="#b" x="66.996" y="2.146"/><use xlink:href="#1"/><use xlink:href="#1" y="2.171"/></svg><svg x="480"><use xlink:href="#a"/><use xlink:href="#b" x="67.996" y="2.146"/><use xlink:href="#1"/><text y="3.841" class="f">[</text><text x="1.002" y="3.841" class="g">#1#</text><text x="4.008" y="3.841" class="h">root@</text><text x="9.018" y="3.841" class="i">ubuntu-1604</text><text x="21.042" y="3.841" class="i">/go/src/github.com/moooofly/harbor-go-client]$</text><text x="67.134" y="3.841" class="f">.</text></svg><svg x="600"><use xlink:href="#a"/><use xlink:href="#b" x="68.996" y="2.146"/><use xlink:href="#1"/><text y="3.841" class="f">[</text><text x="1.002" y="3.841" class="g">#1#</text><text x="4.008" y="3.841" class="h">root@</text><text x="9.018" y="3.841" class="i">ubuntu-1604</text><text x="21.042" y="3.841" class="i">/go/src/github.com/moooofly/harbor-go-client]$</text><text x="67.134" y="3.841" class="f">./</text></svg><svg x="720"><use xlink:href="#a"/><use xlink:href="#b" x="69.996" y="2.146"/><use xlink:href="#1"/><text y="3.841" class="f">[</text><text x="1.002" y="3.841" class="g">#1#</text><text x="4.008" y="3.841" class="h">root@</text><text x="9.018" y="3.841" class="i">ubuntu-1604</text><text x="21.042" y="3.841" class="i">/go/src/github.com/moooofly/harbor-go-client]$</text><text x="67.134" y="3.841" class="f">./h</text></svg><svg x="840"><use xlink:href="#a"/><use xlink:href="#b" x="85.996" y="2.146"/><use xlink:href="#1"/><text y="3.841" class="f">[</text><text x="1.002" y="3.841" class="g">#1#</text><text x="4.008" y="3.841" class="h">root@</text><text x="9.018" y="3.841" class="i">ubuntu-1604</text><text x="21.042" y="3.841" class="i">/go/src/github.com/moooofly/harbor-go-client]$</text><text x="67.134" y="3.841" class="f">./harbor-go-client</text></svg><svg x="960"><use xlink:href="#a"/><use xlink:href="#b" x="86.996" y="2.146"/><use xlink:href="#1"/><text y="3.841" class="f">[</text><text x="1.002" y="3.841" class="g">#1#</text><text x="4.008" y="3.841" class="h">root@</text><text x="9.018" y="3.841" class="i">ubuntu-1604</text><text x="21.042" y="3.841" class="i">/go/src/github.com/moooofly/harbor-go-client]$</text><text x="67.134" y="3.841" class="f">./harbor-go-client</text><text x="86.172" y="3.841" class="f">v</text></svg><svg x="1080"><use xlink:href="#a"/><use xlink:href="#b" x="87.996" y="2.146"/><use xlink:href="#1"/><text y="3.841" class="f">[</text><text x="1.002" y="3.841" class="g">#1#</text><text x="4.008" y="3.841" class="h">root@</text><text x="9.018" y="3.841" class="i">ubuntu-1604</text><text x="21.042" y="3.841" class="i">/go/src/github.com/moooofly/harbor-go-client]$</text><text x="67.134" y="3.841" class="f">./harbor-go-client</text><text x="86.172" y="3.841" class="f">ve</text></svg><svg x="1200"><use xlink:href="#a"/><use xlink:href="#b" x="88.996" y="2.146"/><use xlink:href="#1"/><text y="3.841" class="f">[</text><text x="1.002" y="3.841" class="g">#1#</text><text x="4.008" y="3.841" class="h">root@</text><text x="9.018" y="3.841" class="i">ubuntu-1604</text><text x="21.042" y="3.841" class="i">/go/src/github.com/moooofly/harbor-go-client]$</text><text x="67.134" y="3.841" class="f">./harbor-go-client</text><text x="86.172" y="3.841" class="f">ver</text></svg><svg x="1320"><use xlink:href="#a"/><use xlink:href="#b" x="89.996" y="2.146"/><use xlink:href="#1"/><text y="3.841" class="f">[</text><text x="1.002" y="3.841" class="g">#1#</text><text x="4.008" y="3.841" class="h">root@</text><text x="9.018" y="3.841" class="i">ubuntu-1604</text><text x="21.042" y="3.841" class="i">/go/src/github.com/moooofly/harbor-go-client]$</text><text x="67.134" y="3.841" class="f">./harbor-go-client</text><text x="86.172" y="3.841" class="f">vers</text></svg><svg x="1440"><use xlink:href="#a"/><use xlink:href="#b" x="90.996" y="2.146"/><use xlink:href="#1"/><text y="3.841" class="f">[</text><text x="1.002" y="3.841" class="g">#1#</text><text x="4.008" y="3.841" class="h">root@</text><text x="9.018" y="3.841" class="i">ubuntu-1604</text><text x="21.042" y="3.841" class="i">/go/src/github.com/moooofly/harbor-go-client]$</text><text x="67.134" y="3.841" class="f">./harbor-go-client</text><text x="86.172" y="3.841" class="f">versi</text></svg><svg x="1560"><use xlink:href="#a"/><use xlink:href="#b" x="91.996" y="2.146"/><use xlink:href="#1"/><text y="3.841" class="f">[</text><text x="1.002" y="3.841" class="g">#1#</text><text x="4.008" y="3.841" class="h">root@</text><text x="9.018" y="3.841" class="i">ubuntu-1604</text><text x="21.042" y="3.841" class="i">/go/src/github.com/moooofly/harbor-go-client]$</text><text x="67.134" y="3.841" class="f">./harbor-go-client</text><text x="86.172" y="3.841" class="f">versio</text></svg><svg x="1680"><use xlink:href="#a"/><use xlink:href="#b" x="92.996" y="2.146"/><use xlink:href="#1"/><use xlink:href="#2" y="2.171"/></svg><svg x="1800"><use xlink:href="#a"/><use xlink:href="#b" x="-.004" y="4.317"/><use xlink:href="#1"/><use xlink:href="#2" y="2.171"/></svg><svg x="1920"><use xlink:href="#a"/><use xlink:href="#b" x="29.996" y="30.369"/><use xlink:href="#1"/><use xlink:href="#2" y="2.171"/><use xlink:href="#3" y="6.513"/><use xlink:href="#4" y="8.684"/><use xlink:href="#5" y="10.855"/><use xlink:href="#6" y="13.026"/><use xlink:href="#7" y="15.197"/><use xlink:href="#8" y="17.368"/><use xlink:href="#9" y="19.539"/><use xlink:href="#10" y="23.881"/><use xlink:href="#11" y="26.052"/><use xlink:href="#12" y="28.223"/><text y="32.064" class="f">|</text><text x="2.004" y="32.064" class="f">UTC</text><text x="6.012" y="32.064" class="f">Build</text><text x="12.024" y="32.064" class="f">Time</text><text x="23.046" y="32.064" class="f">|</text><text x="25.05" y="32.064" class="f">2018-</text></svg><svg x="2040"><use xlink:href="#a"/><use xlink:href="#b" x="-.004" y="41.224"/><use xlink:href="#1"/><use xlink:href="#2" y="2.171"/><use xlink:href="#3" y="6.513"/><use xlink:href="#4" y="8.684"/><use xlink:href="#5" y="10.855"/><use xlink:href="#6" y="13.026"/><use xlink:href="#7" y="15.197"/><use xlink:href="#8" y="17.368"/><use xlink:href="#9" y="19.539"/><use xlink:href="#10" y="23.881"/><use xlink:href="#11" y="26.052"/><use xlink:href="#12" y="28.223"/><use xlink:href="#13" y="30.394"/><use xlink:href="#14" y="32.565"/><use xlink:href="#15" y="34.736"/><use xlink:href="#16" y="36.907"/><use xlink:href="#10" y="39.078"/></svg><svg x="2160"><use xlink:href="#a"/><use xlink:href="#b" x="66.996" y="41.224"/><use xlink:href="#1"/><use xlink:href="#2" y="2.171"/><use xlink:href="#3" y="6.513"/><use xlink:href="#4" y="8.684"/><use xlink:href="#5" y="10.855"/><use xlink:href="#6" y="13.026"/><use xlink:href="#7" y="15.197"/><use xlink:href="#8" y="17.368"/><use xlink:href="#9" y="19.539"/><use xlink:href="#10" y="23.881"/><use xlink:href="#11" y="26.052"/><use xlink:href="#12" y="28.223"/><use xlink:href="#13" y="30.394"/><use xlink:href="#14" y="32.565"/><use xlink:href="#15" y="34.736"/><use xlink:href="#16" y="36.907"/><use xlink:href="#10" y="39.078"/><use xlink:href="#17" y="41.249"/></svg><svg x="2280"><use xlink:href="#a"/><use xlink:href="#b" x="-.004" y="43.395"/><use xlink:href="#1"/><use xlink:href="#2" y="2.171"/><use xlink:href="#3" y="6.513"/><use xlink:href="#4" y="8.684"/><use xlink:href="#5" y="10.855"/><use xlink:href="#6" y="13.026"/><use xlink:href="#7" y="15.197"/><use xlink:href="#8" y="17.368"/><use xlink:href="#9" y="19.539"/><use xlink:href="#10" y="23.881"/><use xlink:href="#11" y="26.052"/><use xlink:href="#12" y="28.223"/><use xlink:href="#13" y="30.394"/><use xlink:href="#14" y="32.565"/><use xlink:href="#15" y="34.736"/><use xlink:href="#16" y="36.907"/><use xlink:href="#10" y="39.078"/><use xlink:href="#17" y="41.249"/></svg><svg x="2400"><use xlink:href="#a"/><use xlink:href="#b" x="66.996" y="43.395"/><use xlink:href="#1"/><use xlink:href="#2" y="2.171"/><use xlink:href="#3" y="6.513"/><use xlink:href="#4" y="8.684"/><use xlink:href="#5" y="10.855"/><use xlink:href="#6" y="13.026"/><use xlink:href="#7" y="15.197"/><use xlink:href="#8" y="17.368"/><use xlink:href="#9" y="19.539"/><use xlink:href="#10" y="23.881"/><use xlink:href="#11" y="26.052"/><use xlink:href="#12" y="28.223"/><use xlink:href="#13" y="30.394"/><use xlink:href="#14" y="32.565"/><use xlink:href="#15" y="34.736"/><use xlink:href="#16" y="36.907"/><use xlink:href="#10" y="39.078"/><use xlink:href="#17" y="41.249"/><use xlink:href="#17" y="43.42"/></svg><svg x="2520"><use xlink:href="#a"/><use xlink:href="#b" x="70.996" y="43.395"/><use xlink:href="#1"/><use xlink:href="#2" y="2.171"/><use xlink:href="#3" y="6.513"/><use xlink:href="#4" y="8.684"/><use xlink:href="#5" y="10.855"/><use xlink:href="#6" y="13.026"/><use xlink:href="#7" y="15.197"/><use xlink:href="#8" y="17.368"/><use xlink:href="#9" y="19.539"/><use xlink:href="#10" y="23.881"/><use xlink:href="#11" y="26.052"/><use xlink:href="#12" y="28.223"/><use xlink:href="#13" y="30.394"/><use xlink:href="#14" y="32.565"/><use xlink:href="#15" y="34.736"/><use xlink:href="#16" y="36.907"/><use xlink:href="#10" y="39.078"/><use xlink:href="#17" y="41.249"/><use xlink:href="#18" y="43.42"/></svg><svg x="2640"><use xlink:href="#a"/><use xlink:href="#b" x="-.004" y="45.566"/><use xlink:href="#1"/><use xlink:href="#2" y="2.171"/><use xlink:href="#3" y="6.513"/><use xlink:href="#4" y="8.684"/><use xlink:href="#5" y="10.855"/><use xlink:href="#6" y="13.026"/><use xlink:href="#7" y="15.197"/><use xlink:href="#8" y="17.368"/><use xlink:href="#9" y="19.539"/><use xlink:href="#10" y="23.881"/><use xlink:href="#11" y="26.052"/><use xlink:href="#12" y="28.223"/><use xlink:href="#13" y="30.394"/><use xlink:href="#14" y="32.565"/><use xlink:href="#15" y="34.736"/><use xlink:href="#16" y="36.907"/><use xlink:href="#10" y="39.078"/><use xlink:href="#17" y="41.249"/><use xlink:href="#18" y="43.42"/></svg></svg></g></g></svg></svg>