<svg xmlns="http://www.w3.org/2000/svg" xmlns:xlink="http://www.w3.org/1999/xlink" width="1240" height="819.85"><rect width="1240" height="819.85" rx="5" ry="5" class="a"/><svg y="0%" x="0%"><circle cx="20" cy="20" r="6" fill="#ff5f58"/><circle cx="40" cy="20" r="6" fill="#ffbd2e"/><circle cx="60" cy="20" r="6" fill="#18c132"/></svg><svg height="759.85" viewBox="0 0 120 75.985" width="1200" x="15" xmlns="http://www.w3.org/2000/svg" xmlns:xlink="http://www.w3.org/1999/xlink" y="50"><style>@keyframes l{0%{transform:translateX(0)}.3%{transform:translateX(-120px)}20.1%{transform:translateX(-360px)}24.7%{transform:translateX(-480px)}25.3%{transform:translateX(-600px)}28%{transform:translateX(-720px)}30%{transform:translateX(-840px)}38.7%{transform:translateX(-1440px)}47.9%{transform:translateX(-1560px)}49.4%{transform:translateX(-1680px)}51.9%{transform:translateX(-1800px)}55%{transform:translateX(-2160px)}60.5%{transform:translateX(-2400px)}64.7%{transform:translateX(-2520px)}72.7%{transform:translateX(-2640px)}74.3%{transform:translateX(-2760px)}79.6%{transform:translateX(-2880px)}82.7%{transform:translateX(-3120px)}83.1%{transform:translateX(-3360px)}83.2%{transform:translateX(-3720px)}95.3%{transform:translateX(-3840px)}to{transform:translateX(-3960px)}}.a{fill:#282d35}.f{fill:#b9c0cb}.g{fill:#a8cc8c}.h{fill:#e88388}.i{fill:#66c2cd}</style><g font-size="1.67" font-family="Monaco,Consolas,Menlo,'Bitstream Vera Sans Mono','Powerline Symbols',monospace"><defs><symbol id="1"><text y="1.67" class="f">[</text><text x="1.002" y="1.67" class="g">#1#</text><text x="4.008" y="1.67" class="h">root@</text><text x="9.018" y="1.67" class="i">ubuntu-1604</text><text x="21.042" y="1.67" class="i">/go/src/github.com/moooofly/harbor-go-client]$</text></symbol><symbol id="2"><text y="1.67" class="f">[</text><text x="1.002" y="1.67" class="g">#1#</text><text x="4.008" y="1.67" class="h">root@</text><text x="9.018" y="1.67" class="i">ubuntu-1604</text><text x="21.042" y="1.67" class="i">/go/src/github.com/moooofly/harbor-go-client]$</text><text x="67.134" y="1.67" class="f">./harbor-go-client</text><text x="86.172" y="1.67" class="f">statistics</text></symbol><symbol id="3"><text y="1.67" class="f">[</text><text x="1.002" y="1.67" class="g">#1#</text><text x="4.008" y="1.67" class="h">root@</text><text x="9.018" y="1.67" class="i">ubuntu-1604</text><text x="21.042" y="1.67" class="i">/go/src/github.com/moooofly/harbor-go-client]$</text><text x="67.134" y="1.67" class="f">./harbor-go-client</text><text x="86.172" y="1.67" class="f">statistics</text><text x="97.194" y="1.67" class="f">-h</text></symbol><symbol id="4"><text y="1.67" class="f">Usage:</text></symbol><symbol id="5"><text x="2.004" y="1.67" class="f">harbor-go-client</text><text x="19.038" y="1.67" class="f">[OPTIONS]</text><text x="29.058" y="1.67" class="f">statistics</text></symbol><symbol id="6"><text y="1.67" class="f">This</text><text x="5.01" y="1.67" class="f">endpoint</text><text x="14.028" y="1.67" class="f">is</text><text x="17.034" y="1.67" class="f">aimed</text><text x="23.046" y="1.67" class="f">to</text><text x="26.052" y="1.67" class="f">statistic</text><text x="36.072" y="1.67" class="f">all</text><text x="40.08" y="1.67" class="f">of</text><text x="43.086" y="1.67" class="f">the</text><text x="47.094" y="1.67" class="f">projects</text><text x="56.112" y="1.67" class="f">number</text><text x="63.126" y="1.67" class="f">and</text><text x="67.134" y="1.67" class="f">repositories</text><text x="80.16" y="1.67" class="f">number</text><text x="87.174" y="1.67" class="f">relevant</text><text x="96.192" y="1.67" class="f">to</text><text x="99.198" y="1.67" class="f">the</text><text x="103.206" y="1.67" class="f">logined</text><text x="111.222" y="1.67" class="f">user,</text><text x="117.234" y="1.67" class="f">als</text></symbol><symbol id="7"><text y="1.67" class="f">o</text><text x="2.004" y="1.67" class="f">the</text><text x="6.012" y="1.67" class="f">public</text><text x="13.026" y="1.67" class="f">projects</text><text x="22.044" y="1.67" class="f">number</text><text x="29.058" y="1.67" class="f">and</text><text x="33.066" y="1.67" class="f">repositories</text><text x="46.092" y="1.67" class="f">number.</text><text x="54.108" y="1.67" class="f">If</text><text x="57.114" y="1.67" class="f">the</text><text x="61.122" y="1.67" class="f">user</text><text x="66.132" y="1.67" class="f">is</text><text x="69.138" y="1.67" class="f">admin,</text><text x="76.152" y="1.67" class="f">he</text><text x="79.158" y="1.67" class="f">can</text></symbol><symbol id="8"><text y="1.67" class="f">also</text><text x="5.01" y="1.67" class="f">get</text><text x="9.018" y="1.67" class="f">total</text><text x="15.03" y="1.67" class="f">projects</text><text x="24.048" y="1.67" class="f">number</text><text x="31.062" y="1.67" class="f">and</text><text x="35.07" y="1.67" class="f">total</text><text x="41.082" y="1.67" class="f">repositories</text><text x="54.108" y="1.67" class="f">number.</text></symbol><symbol id="9"><text y="1.67" class="f">Help</text><text x="5.01" y="1.67" class="f">Options:</text></symbol><symbol id="10"><text x="2.004" y="1.67" class="f">-h,</text><text x="6.012" y="1.67" class="f">--help</text><text x="18.036" y="1.67" class="f">Show</text><text x="23.046" y="1.67" class="f">this</text><text x="28.056" y="1.67" class="f">help</text><text x="33.066" y="1.67" class="f">message</text></symbol><symbol id="11"><text y="1.67" class="f">[</text><text x="1.002" y="1.67" class="g">#2#</text><text x="4.008" y="1.67" class="h">root@</text><text x="9.018" y="1.67" class="i">ubuntu-1604</text><text x="21.042" y="1.67" class="i">/go/src/github.com/moooofly/harbor-go-client]$</text></symbol><symbol id="12"><text y="1.67" class="f">[</text><text x="1.002" y="1.67" class="g">#2#</text><text x="4.008" y="1.67" class="h">root@</text><text x="9.018" y="1.67" class="i">ubuntu-1604</text><text x="21.042" y="1.67" class="i">/go/src/github.com/moooofly/harbor-go-client]$</text><text x="67.134" y="1.67" class="f">./harbor-go-client</text><text x="86.172" y="1.67" class="f">statistics</text></symbol><symbol id="13"><text y="1.67" class="f">==&gt;</text><text x="4.008" y="1.67" class="f">GET</text><text x="8.016" y="1.67" class="f">https://localhost/api/statistics</text></symbol><symbol id="14"><text y="1.67" class="f">&lt;==</text></symbol><symbol id="15"><text y="1.67" class="f">&lt;==</text><text x="4.008" y="1.67" class="f">Rsp</text><text x="8.016" y="1.67" class="f">Status:</text><text x="16.032" y="1.67" class="f">200</text><text x="20.04" y="1.67" class="f">OK</text></symbol><symbol id="16"><text y="1.67" class="f">&lt;==</text><text x="4.008" y="1.67" class="f">Rsp</text><text x="8.016" y="1.67" class="f">Body:</text><text x="14.028" y="1.67" class="f">{</text></symbol><symbol id="17"><text x="2.004" y="1.67" class="f">&quot;private_project_count&quot;:</text><text x="27.054" y="1.67" class="f">0,</text></symbol><symbol id="18"><text x="2.004" y="1.67" class="f">&quot;private_repo_count&quot;:</text><text x="24.048" y="1.67" class="f">0,</text></symbol><symbol id="19"><text x="2.004" y="1.67" class="f">&quot;public_project_count&quot;:</text><text x="26.052" y="1.67" class="f">11,</text></symbol><symbol id="20"><text x="2.004" y="1.67" class="f">&quot;public_repo_count&quot;:</text><text x="23.046" y="1.67" class="f">9,</text></symbol><symbol id="21"><text x="2.004" y="1.67" class="f">&quot;total_project_count&quot;:</text><text x="25.05" y="1.67" class="f">11,</text></symbol><symbol id="22"><text x="2.004" y="1.67" class="f">&quot;total_repo_count&quot;:</text><text x="22.044" y="1.67" class="f">9</text></symbol><symbol id="23"><text y="1.67" class="f">}</text></symbol><symbol id="24"><text y="1.67" class="f">[</text><text x="1.002" y="1.67" class="g">#3#</text><text x="4.008" y="1.67" class="h">root@</text><text x="9.018" y="1.67" class="i">ubuntu-1604</text><text x="21.042" y="1.67" class="i">/go/src/github.com/moooofly/harbor-go-client]$</text></symbol><symbol id="a"><path fill="transparent" d="M0 0h120v36H0z"/></symbol><symbol id="b"><path fill="#6f7683" d="M0 0h1.102v2.171H0z"/></symbol></defs><path class="a" d="M0 0h120v75.985H0z"/><g style="animation-duration:10.412807s;animation-iteration-count:infinite;animation-name:l;animation-timing-function:steps(1,end)"><svg width="4080"><svg><use xlink:href="#a"/><use xlink:href="#b" x="-.004"/></svg><svg x="120"><use xlink:href="#a"/><use xlink:href="#b" x="66.996"/><use xlink:href="#1"/></svg><svg x="240"><use xlink:href="#a"/><use xlink:href="#b" x="-.004" y="2.146"/><use xlink:href="#1"/></svg><svg x="360"><use xlink:href="#a"/><use xlink:href="#b" x="66.996" y="2.146"/><use xlink:href="#1"/><use xlink:href="#1" y="2.171"/></svg><svg x="480"><use xlink:href="#a"/><use xlink:href="#b" x="67.996" y="2.146"/><use xlink:href="#1"/><text y="3.841" class="f">[</text><text x="1.002" y="3.841" class="g">#1#</text><text x="4.008" y="3.841" class="h">root@</text><text x="9.018" y="3.841" class="i">ubuntu-1604</text><text x="21.042" y="3.841" class="i">/go/src/github.com/moooofly/harbor-go-client]$</text><text x="67.134" y="3.841" class="f">.</text></svg><svg x="600"><use xlink:href="#a"/><use xlink:href="#b" x="68.996" y="2.146"/><use xlink:href="#1"/><text y="3.841" class="f">[</text><text x="1.002" y="3.841" class="g">#1#</text><text x="4.008" y="3.841" class="h">root@</text><text x="9.018" y="3.841" class="i">ubuntu-1604</text><text x="21.042" y="3.841" class="i">/go/src/github.com/moooofly/harbor-go-client]$</text><text x="67.134" y="3.841" class="f">./</text></svg><svg x="720"><use xlink:href="#a"/><use xlink:href="#b" x="69.996" y="2.146"/><use xlink:href="#1"/><text y="3.841" class="f">[</text><text x="1.002" y="3.841" class="g">#1#</text><text x="4.008" y="3.841" class="h">root@</text><text x="9.018" y="3.841" class="i">ubuntu-1604</text><text x="21.042" y="3.841" class="i">/go/src/github.com/moooofly/harbor-go-client]$</text><text x="67.134" y="3.841" class="f">./h</text></svg><svg x="840"><use xlink:href="#a"/><use xlink:href="#b" x="85.996" y="2.146"/><use xlink:href="#1"/><text y="3.841" class="f">[</text><text x="1.002" y="3.841" class="g">#1#</text><text x="4.008" y="3.841" class="h">root@</text><text x="9.018" y="3.841" class="i">ubuntu-1604</text><text x="21.042" y="3.841" class="i">/go/src/github.com/moooofly/harbor-go-client]$</text><text x="67.134" y="3.841" class="f">./harbor-go-client</text></svg><svg x="960"><use xlink:href="#a"/><use xlink:href="#b" x="86.996" y="2.146"/><use xlink:href="#1"/><text y="3.841" class="f">[</text><text x="1.002" y="3.841" class="g">#1#</text><text x="4.008" y="3.841" class="h">root@</text><text x="9.018" y="3.841" class="i">ubuntu-1604</text><text x="21.042" y="3.841" class="i">/go/src/github.com/moooofly/harbor-go-client]$</text><text x="67.134" y="3.841" class="f">./harbor-go-client</text><text x="86.172" y="3.841" class="f">s</text></svg><svg x="1080"><use xlink:href="#a"/><use xlink:href="#b" x="87.996" y="2.146"/><use xlink:href="#1"/><text y="3.841" class="f">[</text><text x="1.002" y="3.841" class="g">#1#</text><text x="4.008" y="3.841" class="h">root@</text><text x="9.018" y="3.841" class="i">ubuntu-1604</text><text x="21.042" y="3.841" class="i">/go/src/github.com/moooofly/harbor-go-client]$</text><text x="67.134" y="3.841" class="f">./harbor-go-client</text><text x="86.172" y="3.841" class="f">st</text></svg><svg x="1200"><use xlink:href="#a"/><use xlink:href="#b" x="89.996" y="2.146"/><use xlink:href="#1"/><text y="3.841" class="f">[</text><text x="1.002" y="3.841" class="g">#1#</text><text x="4.008" y="3.841" class="h">root@</text><text x="9.018" y="3.841" class="i">ubuntu-1604</text><text x="21.042" y="3.841" class="i">/go/src/github.com/moooofly/harbor-go-client]$</text><text x="67.134" y="3.841" class="f">./harbor-go-client</text><text x="86.172" y="3.841" class="f">stat</text></svg><svg x="1320"><use xlink:href="#a"/><use xlink:href="#b" x="94.996" y="2.146"/><use xlink:href="#1"/><text y="3.841" class="f">[</text><text x="1.002" y="3.841" class="g">#1#</text><text x="4.008" y="3.841" class="h">root@</text><text x="9.018" y="3.841" class="i">ubuntu-1604</text><text x="21.042" y="3.841" class="i">/go/src/github.com/moooofly/harbor-go-client]$</text><text x="67.134" y="3.841" class="f">./harbor-go-client</text><text x="86.172" y="3.841" class="f">statistic</text></svg><svg x="1440"><use xlink:href="#a"/><use xlink:href="#b" x="95.996" y="2.146"/><use xlink:href="#1"/><use xlink:href="#2" y="2.171"/></svg><svg x="1560"><use xlink:href="#a"/><use xlink:href="#b" x="96.996" y="2.146"/><use xlink:href="#1"/><use xlink:href="#2" y="2.171"/></svg><svg x="1680"><use xlink:href="#a"/><use xlink:href="#b" x="97.996" y="2.146"/><use xlink:href="#1"/><text y="3.841" class="f">[</text><text x="1.002" y="3.841" class="g">#1#</text><text x="4.008" y="3.841" class="h">root@</text><text x="9.018" y="3.841" class="i">ubuntu-1604</text><text x="21.042" y="3.841" class="i">/go/src/github.com/moooofly/harbor-go-client]$</text><text x="67.134" y="3.841" class="f">./harbor-go-client</text><text x="86.172" y="3.841" class="f">statistics</text><text x="97.194" y="3.841" class="f">-</text></svg><svg x="1800"><use xlink:href="#a"/><use xlink:href="#b" x="98.996" y="2.146"/><use xlink:href="#1"/><use xlink:href="#3" y="2.171"/></svg><svg x="1920"><use xlink:href="#a"/><use xlink:href="#b" x="-.004" y="4.317"/><use xlink:href="#1"/><use xlink:href="#3" y="2.171"/></svg><svg x="2040"><use xlink:href="#a"/><use xlink:href="#b" x="-.004" y="26.027"/><use xlink:href="#1"/><use xlink:href="#3" y="2.171"/><use xlink:href="#4" y="4.342"/><use xlink:href="#5" y="6.513"/><use xlink:href="#6" y="10.855"/><use xlink:href="#7" y="13.026"/><use xlink:href="#8" y="15.197"/><use xlink:href="#9" y="19.539"/><use xlink:href="#10" y="21.71"/></svg><svg x="2160"><use xlink:href="#a"/><use xlink:href="#b" x="66.996" y="26.027"/><use xlink:href="#1"/><use xlink:href="#3" y="2.171"/><use xlink:href="#4" y="4.342"/><use xlink:href="#5" y="6.513"/><use xlink:href="#6" y="10.855"/><use xlink:href="#7" y="13.026"/><use xlink:href="#8" y="15.197"/><use xlink:href="#9" y="19.539"/><use xlink:href="#10" y="21.71"/><use xlink:href="#11" y="26.052"/></svg><svg x="2280"><use xlink:href="#a"/><use xlink:href="#b" x="-.004" y="28.198"/><use xlink:href="#1"/><use xlink:href="#3" y="2.171"/><use xlink:href="#4" y="4.342"/><use xlink:href="#5" y="6.513"/><use xlink:href="#6" y="10.855"/><use xlink:href="#7" y="13.026"/><use xlink:href="#8" y="15.197"/><use xlink:href="#9" y="19.539"/><use xlink:href="#10" y="21.71"/><use xlink:href="#11" y="26.052"/></svg><svg x="2400"><use xlink:href="#a"/><use xlink:href="#b" x="66.996" y="28.198"/><use xlink:href="#1"/><use xlink:href="#3" y="2.171"/><use xlink:href="#4" y="4.342"/><use xlink:href="#5" y="6.513"/><use xlink:href="#6" y="10.855"/><use xlink:href="#7" y="13.026"/><use xlink:href="#8" y="15.197"/><use xlink:href="#9" y="19.539"/><use xlink:href="#10" y="21.71"/><use xlink:href="#11" y="26.052"/><use xlink:href="#11" y="28.223"/></svg><svg x="2520"><use xlink:href="#a"/><use xlink:href="#b" x="98.996" y="28.198"/><use xlink:href="#1"/><use xlink:href="#3" y="2.171"/><use xlink:href="#4" y="4.342"/><use xlink:href="#5" y="6.513"/><use xlink:href="#6" y="10.855"/><use xlink:href="#7" y="13.026"/><use xlink:href="#8" y="15.197"/><use xlink:href="#9" y="19.539"/><use xlink:href="#10" y="21.71"/><use xlink:href="#11" y="26.052"/><text y="29.893" class="f">[</text><text x="1.002" y="29.893" class="g">#2#</text><text x="4.008" y="29.893" class="h">root@</text><text x="9.018" y="29.893" class="i">ubuntu-1604</text><text x="21.042" y="29.893" class="i">/go/src/github.com/moooofly/harbor-go-client]$</text><text x="67.134" y="29.893" class="f">./harbor-go-client</text><text x="86.172" y="29.893" class="f">statistics</text><text x="97.194" y="29.893" class="f">-h</text></svg><svg x="2640"><use xlink:href="#a"/><use xlink:href="#b" x="97.996" y="28.198"/><use xlink:href="#1"/><use xlink:href="#3" y="2.171"/><use xlink:href="#4" y="4.342"/><use xlink:href="#5" y="6.513"/><use xlink:href="#6" y="10.855"/><use xlink:href="#7" y="13.026"/><use xlink:href="#8" y="15.197"/><use xlink:href="#9" y="19.539"/><use xlink:href="#10" y="21.71"/><use xlink:href="#11" y="26.052"/><text y="29.893" class="f">[</text><text x="1.002" y="29.893" class="g">#2#</text><text x="4.008" y="29.893" class="h">root@</text><text x="9.018" y="29.893" class="i">ubuntu-1604</text><text x="21.042" y="29.893" class="i">/go/src/github.com/moooofly/harbor-go-client]$</text><text x="67.134" y="29.893" class="f">./harbor-go-client</text><text x="86.172" y="29.893" class="f">statistics</text><text x="97.194" y="29.893" class="f">-</text></svg><svg x="2760"><use xlink:href="#a"/><use xlink:href="#b" x="96.996" y="28.198"/><use xlink:href="#1"/><use xlink:href="#3" y="2.171"/><use xlink:href="#4" y="4.342"/><use xlink:href="#5" y="6.513"/><use xlink:href="#6" y="10.855"/><use xlink:href="#7" y="13.026"/><use xlink:href="#8" y="15.197"/><use xlink:href="#9" y="19.539"/><use xlink:href="#10" y="21.71"/><use xlink:href="#11" y="26.052"/><use xlink:href="#12" y="28.223"/></svg><svg x="2880"><use xlink:href="#a"/><use xlink:href="#b" x="95.996" y="28.198"/><use xlink:href="#1"/><use xlink:href="#3" y="2.171"/><use xlink:href="#4" y="4.342"/><use xlink:href="#5" y="6.513"/><use xlink:href="#6" y="10.855"/><use xlink:href="#7" y="13.026"/><use xlink:href="#8" y="15.197"/><use xlink:href="#9" y="19.539"/><use xlink:href="#10" y="21.71"/><use xlink:href="#11" y="26.052"/><use xlink:href="#12" y="28.223"/></svg><svg x="3000"><use xlink:href="#a"/><use xlink:href="#b" x="-.004" y="30.369"/><use xlink:href="#1"/><use xlink:href="#3" y="2.171"/><use xlink:href="#4" y="4.342"/><use xlink:href="#5" y="6.513"/><use xlink:href="#6" y="10.855"/><use xlink:href="#7" y="13.026"/><use xlink:href="#8" y="15.197"/><use xlink:href="#9" y="19.539"/><use xlink:href="#10" y="21.71"/><use xlink:href="#11" y="26.052"/><use xlink:href="#12" y="28.223"/></svg><svg x="3120"><use xlink:href="#a"/><use xlink:href="#b" x="-.004" y="32.54"/><use xlink:href="#1"/><use xlink:href="#3" y="2.171"/><use xlink:href="#4" y="4.342"/><use xlink:href="#5" y="6.513"/><use xlink:href="#6" y="10.855"/><use xlink:href="#7" y="13.026"/><use xlink:href="#8" y="15.197"/><use xlink:href="#9" y="19.539"/><use xlink:href="#10" y="21.71"/><use xlink:href="#11" y="26.052"/><use xlink:href="#12" y="28.223"/><use xlink:href="#13" y="30.394"/></svg><svg x="3240"><use xlink:href="#a"/><use xlink:href="#b" x="3.996" y="32.54"/><use xlink:href="#1"/><use xlink:href="#3" y="2.171"/><use xlink:href="#4" y="4.342"/><use xlink:href="#5" y="6.513"/><use xlink:href="#6" y="10.855"/><use xlink:href="#7" y="13.026"/><use xlink:href="#8" y="15.197"/><use xlink:href="#9" y="19.539"/><use xlink:href="#10" y="21.71"/><use xlink:href="#11" y="26.052"/><use xlink:href="#12" y="28.223"/><use xlink:href="#13" y="30.394"/><use xlink:href="#14" y="32.565"/></svg><svg x="3360"><use xlink:href="#a"/><use xlink:href="#b" x="-.004" y="34.711"/><use xlink:href="#1"/><use xlink:href="#3" y="2.171"/><use xlink:href="#4" y="4.342"/><use xlink:href="#5" y="6.513"/><use xlink:href="#6" y="10.855"/><use xlink:href="#7" y="13.026"/><use xlink:href="#8" y="15.197"/><use xlink:href="#9" y="19.539"/><use xlink:href="#10" y="21.71"/><use xlink:href="#11" y="26.052"/><use xlink:href="#12" y="28.223"/><use xlink:href="#13" y="30.394"/><use xlink:href="#14" y="32.565"/></svg><svg x="3480"><use xlink:href="#a"/><use xlink:href="#b" x=".996" y="52.079"/><use xlink:href="#1"/><use xlink:href="#3" y="2.171"/><use xlink:href="#4" y="4.342"/><use xlink:href="#5" y="6.513"/><use xlink:href="#6" y="10.855"/><use xlink:href="#7" y="13.026"/><use xlink:href="#8" y="15.197"/><use xlink:href="#9" y="19.539"/><use xlink:href="#10" y="21.71"/><use xlink:href="#11" y="26.052"/><use xlink:href="#12" y="28.223"/><use xlink:href="#13" y="30.394"/><use xlink:href="#14" y="32.565"/><use xlink:href="#15" y="34.736"/><use xlink:href="#16" y="36.907"/><use xlink:href="#17" y="39.078"/><use xlink:href="#18" y="41.249"/><use xlink:href="#19" y="43.42"/><use xlink:href="#20" y="45.591"/><use xlink:href="#21" y="47.762"/><use xlink:href="#22" y="49.933"/><use xlink:href="#23" y="52.104"/></svg><svg x="3600"><use xlink:href="#a"/><use xlink:href="#b" x="-.004" y="54.25"/><use xlink:href="#1"/><use xlink:href="#3" y="2.171"/><use xlink:href="#4" y="4.342"/><use xlink:href="#5" y="6.513"/><use xlink:href="#6" y="10.855"/><use xlink:href="#7" y="13.026"/><use xlink:href="#8" y="15.197"/><use xlink:href="#9" y="19.539"/><use xlink:href="#10" y="21.71"/><use xlink:href="#11" y="26.052"/><use xlink:href="#12" y="28.223"/><use xlink:href="#13" y="30.394"/><use xlink:href="#14" y="32.565"/><use xlink:href="#15" y="34.736"/><use xlink:href="#16" y="36.907"/><use xlink:href="#17" y="39.078"/><use xlink:href="#18" y="41.249"/><use xlink:href="#19" y="43.42"/><use xlink:href="#20" y="45.591"/><use xlink:href="#21" y="47.762"/><use xlink:href="#22" y="49.933"/><use xlink:href="#23" y="52.104"/></svg><svg x="3720"><use xlink:href="#a"/><use xlink:href="#b" x="66.996" y="54.25"/><use xlink:href="#1"/><use xlink:href="#3" y="2.171"/><use xlink:href="#4" y="4.342"/><use xlink:href="#5" y="6.513"/><use xlink:href="#6" y="10.855"/><use xlink:href="#7" y="13.026"/><use xlink:href="#8" y="15.197"/><use xlink:href="#9" y="19.539"/><use xlink:href="#10" y="21.71"/><use xlink:href="#11" y="26.052"/><use xlink:href="#12" y="28.223"/><use xlink:href="#13" y="30.394"/><use xlink:href="#14" y="32.565"/><use xlink:href="#15" y="34.736"/><use xlink:href="#16" y="36.907"/><use xlink:href="#17" y="39.078"/><use xlink:href="#18" y="41.249"/><use xlink:href="#19" y="43.42"/><use xlink:href="#20" y="45.591"/><use xlink:href="#21" y="47.762"/><use xlink:href="#22" y="49.933"/><use xlink:href="#23" y="52.104"/><use xlink:href="#24" y="54.275"/></svg><svg x="3840"><use xlink:href="#a"/><use xlink:href="#b" x="66.996" y="56.421"/><use xlink:href="#1"/><use xlink:href="#3" y="2.171"/><use xlink:href="#4" y="4.342"/><use xlink:href="#5" y="6.513"/><use xlink:href="#6" y="10.855"/><use xlink:href="#7" y="13.026"/><use xlink:href="#8" y="15.197"/><use xlink:href="#9" y="19.539"/><use xlink:href="#10" y="21.71"/><use xlink:href="#11" y="26.052"/><use xlink:href="#12" y="28.223"/><use xlink:href="#13" y="30.394"/><use xlink:href="#14" y="32.565"/><use xlink:href="#15" y="34.736"/><use xlink:href="#16" y="36.907"/><use xlink:href="#17" y="39.078"/><use xlink:href="#18" y="41.249"/><use xlink:href="#19" y="43.42"/><use xlink:href="#20" y="45.591"/><use xlink:href="#21" y="47.762"/><use xlink:href="#22" y="49.933"/><use xlink:href="#23" y="52.104"/><use xlink:href="#24" y="54.275"/><use xlink:href="#24" y="56.446"/></svg><svg x="3960"><use xlink:href="#a"/><use xlink:href="#b" x="-.004" y="58.592"/><use xlink:href="#1"/><use xlink:href="#3" y="2.171"/><use xlink:href="#4" y="4.342"/><use xlink:href="#5" y="6.513"/><use xlink:href="#6" y="10.855"/><use xlink:href="#7" y="13.026"/><use xlink:href="#8" y="15.197"/><use xlink:href="#9" y="19.539"/><use xlink:href="#10" y="21.71"/><use xlink:href="#11" y="26.052"/><use xlink:href="#12" y="28.223"/><use xlink:href="#13" y="30.394"/><use xlink:href="#14" y="32.565"/><use xlink:href="#15" y="34.736"/><use xlink:href="#16" y="36.907"/><use xlink:href="#17" y="39.078"/><use xlink:href="#18" y="41.249"/><use xlink:href="#19" y="43.42"/><use xlink:href="#20" y="45.591"/><use xlink:href="#21" y="47.762"/><use xlink:href="#22" y="49.933"/><use xlink:href="#23" y="52.104"/><use xlink:href="#24" y="54.275"/><text y="58.116" class="f">[</text><text x="1.002" y="58.116" class="g">#3#</text><text x="4.008" y="58.116" class="h">root@</text><text x="9.018" y="58.116" class="i">ubuntu-1604</text><text x="21.042" y="58.116" class="i">/go/src/github.com/moooofly/harbor-go-client]$</text><text x="67.134" y="58.116" class="f">exit</text></svg></svg></g></g></svg></svg>